{"title":"Mars Needs Moms 2011 V2 TS XViD DTRG - SAFCuk009","uid":6275982,"size":1461073116,"categoryP":"video","categoryS":"movies","magnet":"?xt=urn:btih:0f7e0990c35b7cb1098ea9980d35ec2bbc2fc27a&amp;dn=Mars+Needs+Moms+2011+V2+TS+XViD+DTRG+-+SAFCuk009&amp;tr=udp%3A%2F%2Ftracker.openbittorrent.com%3A80&amp;tr=udp%3A%2F%2Fopen.demonii.com%3A1337&amp;tr=udp%3A%2F%2Ftracker.coppersurfer.tk%3A6969&amp;tr=udp%3A%2F%2Fexodus.desync.com%3A6969","seeders":0,"leechers":0,"uploader":"SAFCukO09","files":3,"time":1301256088,"description":"\n\n\nFormat                           : AVI\nFormat/Info                      : Audio Video Interleave\nFile size                        : 1.36 GiB\nDuration                         : 1h 20mn\nOverall bit rate                 : 2 408 Kbps\nWriting application              : VirtualDubMod 1.5.10.2 (build 2540/release)\nWriting library                  : VirtualDub build 32839/release\n\nVideo\nID                               : 0\nFormat                           : MPEG-4 Visual\nFormat profile                   : Advanced Simple@L5\nFormat settings, BVOP            : Yes\nFormat settings, QPel            : No\nFormat settings, GMC             : No warppoints\nFormat settings, Matrix          : Custom\nCodec ID                         : XVID\nCodec ID/Hint                    : XviD\nDuration                         : 1h 20mn\nBit rate                         : 2 140 Kbps\nWidth                            : 720 pixels\nHeight                           : 336 pixels\nDisplay aspect ratio             : 2.2:1\nFrame rate                       : 29.970 fps\nColor space                      : YUV\nChroma subsampling               : 4:2:0\nBit depth                        : 8 bits\nScan type                        : Progressive\nBits/(Pixel*Frame)               : 0.295\nStream size                      : 1.21 GiB (89%)\nWriting library                  : XviD 1.2.1 (UTC 2008-12-04)\n\nAudio\nID                               : 1\nFormat                           : MPEG Audio\nFormat version                   : Version 1\nFormat profile                   : Layer 3\nCodec ID                         : 55\nCodec ID/Hint                    : MP3\nDuration                         : 1h 20mn\nBit rate mode                    : Constant\nBit rate                         : 256 Kbps\nChannel(s)                       : 2 channels\nSampling rate                    : 44.1 KHz\nStream size                      : 148 MiB (11%)\nAlignment                        : Split accross interleaves\nInterleave, duration             : 33 ms (1.00 video frame)\nInterleave, preload duration     : 500 ms\n\n\n\n &lt;a href=&quot;\nhttp://www.imdb.com/title/tt1305591/&quot; rel=&quot;nofollow&quot; target=&quot;_NEW&quot;&gt;\nhttp://www.imdb.com/title/tt1305591/&lt;/a&gt;\n\n\n\n\n\n\nUsers: 4.1/10 (805 votes) 30 reviews | Critics: 63 reviews Metascore: 49/100 (based on 22 reviews from Metacritic.com)\n\nA young boy named Milo gains a deeper appreciation for his mom after Martians come to Earth to take her away.\nDirector:\nSimon Wells\nWriters:\nSimon Wells (screenplay), Wendy Wells (screenplay), and 1 more credit Ã‚Â»\nStars:\nSeth Green, Joan Cusack and Dan Fogler \n\n\n\n\n\n\n\n &lt;a href=&quot;\nhttp://img851.imageshack.us/img851/6836/vlcsnap2011032716h52m45.png&quot; rel=&quot;nofollow&quot; target=&quot;_NEW&quot;&gt;\nhttp://img851.imageshack.us/img851/6836/vlcsnap2011032716h52m45.png&lt;/a&gt;\n &lt;a href=&quot;\nhttp://img291.imageshack.us/img291/4070/vlcsnap2011032716h47m36.png&quot; rel=&quot;nofollow&quot; target=&quot;_NEW&quot;&gt;\nhttp://img291.imageshack.us/img291/4070/vlcsnap2011032716h47m36.png&lt;/a&gt;\n &lt;a href=&quot;\nhttp://img694.imageshack.us/img694/6301/vlcsnap2011032716h46m53.png&quot; rel=&quot;nofollow&quot; target=&quot;_NEW&quot;&gt;\nhttp://img694.imageshack.us/img694/6301/vlcsnap2011032716h46m53.png&lt;/a&gt;\n\n\n\nSources\n\nVideo TOXiCiNK ............... Thanks guys\nAudio Imagine  ...................Thanks guys\n\n\nFew filters sharpen ,brightness/contrast and rgb ........Enjoy !\n\n\n\nGreetz to Imagine ,Flawl3ss,DiLLoN,BDK,NOiR,TOXiCiNK,THC,Ez,Rx,\n\n\n\n","torrent":{"xt":"urn:btih:0f7e0990c35b7cb1098ea9980d35ec2bbc2fc27a","amp;dn":"Mars+Needs+Moms+2011+V2+TS+XViD+DTRG+-+SAFCuk009","amp;tr":["udp%3A%2F%2Ftracker.openbittorrent.com%3A80","udp%3A%2F%2Fopen.demonii.com%3A1337","udp%3A%2F%2Ftracker.coppersurfer.tk%3A6969","udp%3A%2F%2Fexodus.desync.com%3A6969"],"infoHash":"0f7e0990c35b7cb1098ea9980d35ec2bbc2fc27a","infoHashBuffer":{"type":"Buffer","data":[15,126,9,144,195,91,124,177,9,142,169,152,13,53,236,43,188,47,194,122]},"announce":[],"urlList":[]}}